<?xml version="1.0" encoding="UTF-8" standalone="no"?>
<svg
   xmlns:dc="http://purl.org/dc/elements/1.1/"
   xmlns:cc="http://creativecommons.org/ns#"
   xmlns:rdf="http://www.w3.org/1999/02/22-rdf-syntax-ns#"
   xmlns:svg="http://www.w3.org/2000/svg"
   xmlns="http://www.w3.org/2000/svg"
   xmlns:sodipodi="http://sodipodi.sourceforge.net/DTD/sodipodi-0.dtd"
   xmlns:inkscape="http://www.inkscape.org/namespaces/inkscape"
   version="1.1"
   width="230"
   height="180"
   id="svg2"
   inkscape:version="0.48.4 r9939"
   sodipodi:docname="attenuator.svg">
  <metadata
     id="metadata38">
    <rdf:RDF>
      <cc:Work
         rdf:about="">
        <dc:format>image/svg+xml</dc:format>
        <dc:type
           rdf:resource="http://purl.org/dc/dcmitype/StillImage" />
      </cc:Work>
    </rdf:RDF>
  </metadata>
  <sodipodi:namedview
     pagecolor="#ffffff"
     bordercolor="#666666"
     borderopacity="1"
     objecttolerance="10"
     gridtolerance="10"
     guidetolerance="10"
     inkscape:pageopacity="0"
     inkscape:pageshadow="2"
     inkscape:window-width="798"
     inkscape:window-height="480"
     id="namedview36"
     showgrid="false"
     inkscape:zoom="1.3111111"
     inkscape:cx="115"
     inkscape:cy="90"
     inkscape:window-x="0"
     inkscape:window-y="25"
     inkscape:window-maximized="0"
     inkscape:current-layer="svg2" />
  <title
     id="title4">attenuator_on</title>
  <defs
     id="defs6">
    <style
       type="text/css"
       id="style8">
polyline {stroke-linecap:round; stroke-linejoin:round}
polygon {stroke-linecap:round; stroke-linejoin:round}
path {stroke-linecap:round; stroke-linejoin:round}
circle {stroke-linecap:round; stroke-linejoin:round}
</style>
  </defs>
  <polyline
     points="40.00 90.00 190.00 90.00"
     id="polyline10"
     transform="matrix(0.75,0,0,0.75,28.75,22.5)"
     style="fill:none;stroke:#000000;stroke-width:2.66666675;stroke-linecap:round;stroke-linejoin:round" />
  <path
     style="fill:#c8ffc8;stroke:#000000;stroke-width:2;stroke-linecap:square;stroke-linejoin:miter"
     d="m 77.5,52.5 75,0 0,75 -75,0 0,-75"
     id="path12"
     inkscape:connector-curvature="0" />
  <path
     style="fill:none;stroke:#000000;stroke-width:2;stroke-linecap:square;stroke-linejoin:miter"
     d="m 103.75,63.75 22.5,0 0,7.5 -22.5,0 0,-7.5"
     id="path14"
     inkscape:connector-curvature="0" />
  <path
     style="fill:none;stroke:#000000;stroke-width:2;stroke-linecap:square;stroke-linejoin:miter"
     d="m 100,82.5 0,22.5 -7.5,0 0,-22.5 7.5,0"
     id="path16"
     inkscape:connector-curvature="0" />
  <path
     style="fill:none;stroke:#000000;stroke-width:2;stroke-linecap:square;stroke-linejoin:miter"
     d="m 141.25,82.5 0,22.5 -7.5,0 0,-22.5 7.5,0"
     id="path18"
     inkscape:connector-curvature="0" />
  <polyline
     points="90.00 80.00 90.00 60.00 95.00 60.00 100.00 60.00"
     id="polyline20"
     transform="matrix(0.75,0,0,0.75,28.75,22.5)"
     style="fill:none;stroke:#000000;stroke-width:2.66666675;stroke-linecap:round;stroke-linejoin:round" />
  <polyline
     points="145.00 80.00 145.00 60.00 130.00 60.00"
     id="polyline22"
     transform="matrix(0.75,0,0,0.75,28.75,22.5)"
     style="fill:none;stroke:#000000;stroke-width:2.66666675;stroke-linecap:round;stroke-linejoin:round" />
  <polyline
     points="90.00 110.00 90.00 125.00"
     id="polyline24"
     transform="matrix(0.75,0,0,0.75,28.75,22.5)"
     style="fill:none;stroke:#000000;stroke-width:2.66666675;stroke-linecap:round;stroke-linejoin:round" />
  <polyline
     points="145.00 110.00 145.00 125.00"
     id="polyline26"
     transform="matrix(0.75,0,0,0.75,28.75,22.5)"
     style="fill:none;stroke:#000000;stroke-width:2.66666675;stroke-linecap:round;stroke-linejoin:round" />
  <polyline
     points="85.00 125.00 95.00 125.00"
     id="polyline28"
     transform="matrix(0.75,0,0,0.75,28.75,22.5)"
     style="fill:none;stroke:#000000;stroke-width:2.66666675;stroke-linecap:round;stroke-linejoin:round" />
  <polyline
     points="140.00 125.00 150.00 125.00"
     id="polyline30"
     transform="matrix(0.75,0,0,0.75,28.75,22.5)"
     style="fill:none;stroke:#000000;stroke-width:2.66666675;stroke-linecap:round;stroke-linejoin:round" />
  <polyline
     points="90.00 60.00 70.00 60.00"
     id="polyline32"
     transform="matrix(0.75,0,0,0.75,28.75,22.5)"
     style="fill:none;stroke:#000000;stroke-width:2.66666675;stroke-linecap:round;stroke-linejoin:round" />
  <polyline
     points="145.00 60.00 160.00 60.00"
     id="polyline34"
     transform="matrix(0.75,0,0,0.75,28.75,22.5)"
     style="fill:none;stroke:#000000;stroke-width:2.66666675;stroke-linecap:round;stroke-linejoin:round" />
</svg>
