<?xml version="1.0" encoding="UTF-8" standalone="no"?>
<svg
   xmlns:dc="http://purl.org/dc/elements/1.1/"
   xmlns:cc="http://creativecommons.org/ns#"
   xmlns:rdf="http://www.w3.org/1999/02/22-rdf-syntax-ns#"
   xmlns:svg="http://www.w3.org/2000/svg"
   xmlns="http://www.w3.org/2000/svg"
   xmlns:sodipodi="http://sodipodi.sourceforge.net/DTD/sodipodi-0.dtd"
   xmlns:inkscape="http://www.inkscape.org/namespaces/inkscape"
   version="1.1"
   width="230"
   height="180"
   id="svg2"
   inkscape:version="0.48.4 r9939"
   sodipodi:docname="filter.svg">
  <metadata
     id="metadata32">
    <rdf:RDF>
      <cc:Work
         rdf:about="">
        <dc:format>image/svg+xml</dc:format>
        <dc:type
           rdf:resource="http://purl.org/dc/dcmitype/StillImage" />
      </cc:Work>
    </rdf:RDF>
  </metadata>
  <sodipodi:namedview
     pagecolor="#ffffff"
     bordercolor="#666666"
     borderopacity="1"
     objecttolerance="10"
     gridtolerance="10"
     guidetolerance="10"
     inkscape:pageopacity="0"
     inkscape:pageshadow="2"
     inkscape:window-width="798"
     inkscape:window-height="480"
     id="namedview30"
     showgrid="false"
     inkscape:zoom="1.3111111"
     inkscape:cx="115"
     inkscape:cy="90"
     inkscape:window-x="0"
     inkscape:window-y="25"
     inkscape:window-maximized="0"
     inkscape:current-layer="svg2" />
  <title
     id="title4">filter_on</title>
  <defs
     id="defs6">
    <style
       type="text/css"
       id="style8">
polyline {stroke-linecap:round; stroke-linejoin:round}
polygon {stroke-linecap:round; stroke-linejoin:round}
path {stroke-linecap:round; stroke-linejoin:round}
circle {stroke-linecap:round; stroke-linejoin:round}
</style>
  </defs>
  <polyline
     points="40.00 90.00 190.00 90.00"
     id="polyline10"
     transform="matrix(0.75,0,0,0.75,28.75,22.5)"
     style="fill:none;stroke:#000000;stroke-width:2.66666675;stroke-linecap:round;stroke-linejoin:round" />
  <path
     style="fill:#c8ffc8;stroke:#000000;stroke-width:2;stroke-linecap:square;stroke-linejoin:miter"
     d="m 77.5,52.5 75,0 0,75 -75,0 0,-75"
     id="path12"
     inkscape:connector-curvature="0" />
  <path
     d="m 116.05,70.2 q -1.695,-2.055 -2.8275,-2.9925 -1.14,-0.93 -2.4375,-1.62 -1.2975,-0.6975 -2.7,-1.125 -1.41,-0.4275 -2.8725,-0.57 -1.4625,-0.1425 -2.925,0 -1.4625,0.1425 -2.8725,0.57 -1.4025,0.4275 -2.7,1.125 -1.2975,0.69 -2.4375,1.62 -1.1325,0.9375 -2.07,2.07 -0.93,1.14 -1.62,2.4375 -0.6975,1.2975 -0.855,1.7625 L 89.575,73.95"
     id="path14"
     inkscape:connector-curvature="0"
     style="fill:none;stroke:#000000;stroke-width:2;stroke-linecap:round;stroke-linejoin:round" />
  <path
     d="m 115.525,69.375 q 1.62,1.98 2.7525,2.9175 1.14,0.93 2.4375,1.62 1.2975,0.6975 2.7,1.125 1.41,0.4275 2.8725,0.57 1.4625,0.1425 2.925,0 1.4625,-0.1425 2.8725,-0.57 1.4025,-0.4275 2.7,-1.125 1.2975,-0.69 2.4375,-1.62 1.1325,-0.9375 2.07,-2.07 0.93,-1.14 1.62,-2.4375 0.6975,-1.2975 0.855,-1.7625 L 141.925,65.55"
     id="path16"
     inkscape:connector-curvature="0"
     style="fill:none;stroke:#000000;stroke-width:2;stroke-linecap:round;stroke-linejoin:round" />
  <path
     d="m 116.05,88.95 q -1.695,-2.055 -2.8275,-2.9925 -1.14,-0.93 -2.4375,-1.62 -1.2975,-0.6975 -2.7,-1.125 -1.41,-0.4275 -2.8725,-0.57 -1.4625,-0.1425 -2.925,0 -1.4625,0.1425 -2.8725,0.57 -1.4025,0.4275 -2.7,1.125 -1.2975,0.69 -2.4375,1.62 -1.1325,0.9375 -2.07,2.07 -0.93,1.14 -1.62,2.4375 -0.6975,1.2975 -0.855,1.7625 L 89.575,92.7"
     id="path18"
     inkscape:connector-curvature="0"
     style="fill:none;stroke:#000000;stroke-width:2;stroke-linecap:round;stroke-linejoin:round" />
  <path
     d="m 115.525,88.125 q 1.62,1.98 2.7525,2.9175 1.14,0.93 2.4375,1.62 1.2975,0.6975 2.7,1.125 1.41,0.4275 2.8725,0.57 1.4625,0.1425 2.925,0 1.4625,-0.1425 2.8725,-0.57 1.4025,-0.4275 2.7,-1.125 1.2975,-0.69 2.4375,-1.62 1.1325,-0.9375 2.07,-2.07 0.93,-1.14 1.62,-2.4375 0.6975,-1.2975 0.855,-1.7625 L 141.925,84.3"
     id="path20"
     inkscape:connector-curvature="0"
     style="fill:none;stroke:#000000;stroke-width:2;stroke-linecap:round;stroke-linejoin:round" />
  <path
     d="m 116.05,107.7 q -1.695,-2.055 -2.8275,-2.9925 -1.14,-0.93 -2.4375,-1.62 -1.2975,-0.6975 -2.7,-1.125 -1.41,-0.4275 -2.8725,-0.57 -1.4625,-0.1425 -2.925,0 -1.4625,0.1425 -2.8725,0.57 -1.4025,0.4275 -2.7,1.125 -1.2975,0.69 -2.4375,1.62 -1.1325,0.9375 -2.07,2.07 -0.93,1.14 -1.62,2.4375 -0.6975,1.2975 -0.855,1.7625 L 89.575,111.45"
     id="path22"
     inkscape:connector-curvature="0"
     style="fill:none;stroke:#000000;stroke-width:2;stroke-linecap:round;stroke-linejoin:round" />
  <path
     d="m 115.525,106.875 q 1.62,1.98 2.7525,2.9175 1.14,0.93 2.4375,1.62 1.2975,0.6975 2.7,1.125 1.41,0.4275 2.8725,0.57 1.4625,0.1425 2.925,0 1.4625,-0.1425 2.8725,-0.57 1.4025,-0.4275 2.7,-1.125 1.2975,-0.69 2.4375,-1.62 1.1325,-0.9375 2.07,-2.07 0.93,-1.14 1.62,-2.4375 0.6975,-1.2975 0.855,-1.7625 l 0.1575,-0.4725"
     id="path24"
     inkscape:connector-curvature="0"
     style="fill:none;stroke:#000000;stroke-width:2;stroke-linecap:round;stroke-linejoin:round" />
  <polyline
     points="105.00 125.00 125.00 105.00"
     id="polyline26"
     transform="matrix(0.75,0,0,0.75,28.75,22.5)"
     style="fill:none;stroke:#000000;stroke-width:2.66666675;stroke-linecap:round;stroke-linejoin:round" />
  <polyline
     points="112.00 71.00 132.00 51.00"
     id="polyline28"
     transform="matrix(0.75,0,0,0.75,28.75,22.5)"
     style="fill:none;stroke:#000000;stroke-width:2.66666675;stroke-linecap:round;stroke-linejoin:round" />
</svg>
